PathFileType	4	(X/Y/Z)	Kaydara																																																																																																																									
DataRate	CameraRate	NumFrames	NumMarkers	Units	OrigDataRate	OrigDataStartFrame	OrigNumFrames																																																																																																																					
30	30	4	41	mm	30	99	111																																																																																																																					
Frame#	Time	PAIB_LFHD			PAIB_RFHD			PAIB_LBHD			PAIB_RBHD			PAIB_LFTShould			PAIB_RFTShould			PAIB_LRRShould			PAIB_RRRShould			PAIB_T10			PAIB_STRN			PAIB_TRUN			PAIB_LSHO			PAIB_LUPA			PAIB_LELB			PAIB_LFRM			PAIB_LWRA			PAIB_LWRB			PAIB_LFIN			PAIB_RSHO			PAIB_RUPA			PAIB_RELB			PAIB_RFRM			PAIB_RWRA			PAIB_RWRB			PAIB_RFIN			PAIB_LFWT			PAIB_RFWT			PAIB_LBWT			PAIB_RBWT			PAIB_LTHI			PAIB_LKNE			PAIB_LSHN			PAIB_LANK			PAIB_LHEE			PAIB_LTOE			PAIB_RTHI			PAIB_RKNE			PAIB_RSHN			PAIB_RANK			PAIB_RHEE			PAIB_RTOE		
		X1	Y1	Z1	X2	Y2	Z2	X3	Y3	Z3	X4	Y4	Z4	X5	Y5	Z5	X6	Y6	Z6	X7	Y7	Z7	X8	Y8	Z8	X9	Y9	Z9	X10	Y10	Z10	X11	Y11	Z11	X12	Y12	Z12	X13	Y13	Z13	X14	Y14	Z14	X15	Y15	Z15	X16	Y16	Z16	X17	Y17	Z17	X18	Y18	Z18	X19	Y19	Z19	X20	Y20	Z20	X21	Y21	Z21	X22	Y22	Z22	X23	Y23	Z23	X24	Y24	Z24	X25	Y25	Z25	X26	Y26	Z26	X27	Y27	Z27	X28	Y28	Z28	X29	Y29	Z29	X30	Y30	Z30	X31	Y31	Z31	X32	Y32	Z32	X33	Y33	Z33	X34	Y34	Z34	X35	Y35	Z35	X36	Y36	Z36	X37	Y37	Z37	X38	Y38	Z38	X39	Y39	Z39	X40	Y40	Z40	X41	Y41	Z41
																																																																																																																												
84	3.267	208.49344	1593.64487	925.54398	22.69599	1587.09534	930.26825	212.57433	1595.87921	796.07597	9.2414	1597.67914	815.60257	188.62377	1351.88889	839.59824	69.2529	1344.7995	844.11781	183.8788	1452.27829	723.98224	36.06771	1444.52621	736.66695	102.00803	1324.45633	601.34571	139.80984	1276.20476	858.22685	140.64991	1172.1376	850.51636	309.62456	1394.56146	758.94745	409.83459	1234.27803	631.27586	430.21381	1199.65965	552.45392	489.83452	1096.94229	517.75642	481.54217	940.94025	513.55179	516.59496	983.61549	455.30056	546.20762	922.84798	489.80537	-58.28923	1366.98746	803.11928	-172.721	1231.64124	760.88005	-228.61584	1126.74683	761.20636	-200.52538	998.35991	826.23093	-78.05338	943.38257	898.16689	-153.79201	902.35313	897.33864	-111.18854	905.74463	960.49118	222.9212	924.49722	740.70869	-11.79316	927.56851	750.00694	162.33377	968.97049	526.80801	23.54789	995.42259	541.09032	213.40515	684.36256	623.65932	253.31842	502.02316	850.70053	209.81329	305.54556	840.62302	183.93829	135.40989	719.74251	119.69609	135.84556	682.04185	192.25754	66.87394	873.94745	-47.39085	710.1001	513.09395	-39.71694	453.12561	559.78958	24.30616	270.05455	530.81284	-6.88044	95.98833	400.78823	52.66062	103.43523	361.11389	8.04866	49.76073	587.04681
85	3.3	215.65838	1579.55536	993.70331	29.84985	1574.30634	1000.38109	218.41915	1580.98129	864.12704	15.44767	1584.29718	885.70114	195.82062	1335.17334	906.38672	74.90153	1329.05258	917.26639	182.89467	1437.80914	791.22559	35.92706	1429.78088	812.00264	95.72592	1308.22296	674.12323	147.47971	1260.57068	927.70309	147.71283	1156.58836	921.98593	309.35535	1384.43512	818.93456	416.04404	1244.78867	679.75449	435.41817	1217.54311	598.63842	505.19775	1126.63498	553.45043	517.34245	971.73393	537.02232	542.59224	1023.1398	480.70267	582.81364	965.76599	508.87398	-53.28391	1355.66391	886.38962	-169.33889	1221.78223	862.25739	-226.3835	1119.48303	876.48499	-181.78951	1003.31017	953.99849	-49.15731	968.98026	1018.58047	-120.8487	922.75978	1031.46217	-73.20357	937.99484	1088.90869	219.81213	908.61076	822.10014	-14.05996	909.14749	823.92654	165.24864	950.30991	603.5918	28.36742	980.50682	616.64925	218.43081	671.39595	715.6572	254.47445	500.95379	951.54892	221.04218	308.11544	992.26395	209.78453	108.64746	931.16631	145.9775	95.67095	893.05161	214.04606	82.40785	1101.21109	-42.56173	712.6738	566.79085	-44.03426	454.79694	582.23915	20.9879	270.73832	548.22731	-7.51003	105.26705	405.2269	52.42476	115.16848	367.90688	7.4706	49.65583	587.16042
86	3.333	223.56228	1563.66714	1066.68167	37.69601	1560.37933	1071.50803	227.5688	1564.05365	937.07405	24.41607	1569.75449	956.62712	204.9604	1317.2551	978.20335	83.27052	1312.4762	993.78662	186.25792	1419.84695	861.67473	41.10296	1415.67459	888.88367	93.18324	1289.12415	752.1843	155.7664	1242.55699	1001.95831	154.21588	1138.5955	997.29858	311.68568	1372.29492	883.77258	422.32891	1254.56329	735.6897	439.91497	1231.39496	652.3941	517.1307	1151.86203	598.71971	547.25445	999.93874	575.81116	562.15611	1056.13091	519.58241	610.84568	1003.82477	542.97657	-42.30614	1344.19144	970.70366	-162.46351	1214.88068	959.06624	-219.79774	1115.75203	983.72551	-163.25571	1012.32376	1070.43839	-24.17802	993.25981	1126.67892	-91.95599	945.3125	1150.94437	-40.48528	969.3586	1201.91528	213.3465	889.86214	907.11838	-20.39328	888.78944	895.89813	177.81651	932.02362	688.60756	36.90882	963.14903	691.41731	220.89588	651.08963	796.5519	256.93937	488.66829	1043.46962	236.99638	312.51936	1121.37581	234.84262	106.78698	1112.12723	171.34037	81.71126	1077.36443	233.24867	123.7096	1285.38208	-32.89618	708.27271	626.10836	-45.45503	448.34099	622.75711	16.515	268.34686	571.55094	-11.20931	117.44832	413.20827	48.99	131.11867	377.13169	6.57984	49.55123	587.02637
87	3.367	233.76177	1548.39371	1142.99408	47.84647	1547.6413	1145.95825	239.06536	1547.14264	1013.47	35.81777	1555.84045	1030.85411	212.35371	1301.60614	1055.73631	91.44187	1298.64517	1074.4487	192.19383	1403.44666	939.33655	49.22342	1403.49899	969.13574	95.22028	1273.0629	833.83392	162.80506	1227.01019	1080.73517	159.6949	1123.15071	1075.9877	314.48954	1358.35938	959.24133	426.9994	1259.64066	803.05367	443.78448	1237.53372	719.78195	525.26932	1166.18866	661.55838	566.93943	1016.98349	632.26261	575.77385	1076.21262	577.78267	628.6409	1026.59348	596.30909	-30.79987	1337.1402	1054.06815	-153.66085	1208.93951	1048.3625	-212.0949	1112.17087	1078.29926	-147.2761	1018.57979	1169.92798	-5.12282	1010.67825	1221.9574	-69.01415	960.7222	1251.49529	-17.46911	991.10367	1299.01794	207.55318	873.94516	991.97754	-26.10832	869.97505	971.61003	188.08699	916.93039	773.93967	45.73292	946.47774	769.77776	227.20491	635.47997	883.91403	263.65929	477.37926	1133.64258	244.3302	311.17378	1222.47604	243.67853	104.47698	1230.48615	178.90039	76.59845	1199.87259	253.01683	140.43648	1399.86542	-21.93256	702.27776	694.77997	-45.13395	444.14242	671.74751	15.57276	267.45201	604.53983	-11.23767	137.10886	427.83363	50.17259	154.97184	395.29171	6.27687	49.06941	587.44034
